<?xml version="1.0" encoding="iso-8859-1"?>
<!-- Uploaded to: SVG Repo, www.svgrepo.com, Generator: SVG Repo Mixer Tools -->
<!DOCTYPE svg PUBLIC "-//W3C//DTD SVG 1.1//EN" "http://www.w3.org/Graphics/SVG/1.1/DTD/svg11.dtd">
<svg fill="#000000" version="1.1" id="Capa_1" xmlns="http://www.w3.org/2000/svg" xmlns:xlink="http://www.w3.org/1999/xlink" 
	 width="800px" height="800px" viewBox="0 0 47.812 47.811"
	 xml:space="preserve">
<g>
	<path d="M43.783,7.266c0,0.957-0.633,1.801-1.553,2.067l-4.375,1.264v8.131c0,0.948-0.623,1.787-1.533,2.06l-0.049,0.016
		c-0.195,2.855-1.354,5.44-3.166,7.438h1.776c2.938,0,5.316,2.38,5.316,5.316v8.972c0,2.812-2.193,5.088-4.951,5.281H12.56
		c-2.756-0.193-4.949-2.47-4.949-5.281v-8.972c0-2.938,2.385-5.316,5.316-5.316h1.861c-1.803-1.991-2.963-4.57-3.161-7.42
		l-0.101-0.029c-0.909-0.273-1.533-1.111-1.533-2.062V10.6L7.376,9.842v5.478c0.707,0.385,1.194,1.126,1.194,1.988
		c0,1.252-1.019,2.272-2.271,2.272c-1.253,0-2.271-1.021-2.271-2.272c0-0.862,0.487-1.604,1.195-1.988V9.173
		c-0.701-0.364-1.16-1.091-1.16-1.903c0-0.958,0.635-1.802,1.554-2.067l17.708-5.119c0.391-0.112,0.805-0.112,1.195,0l17.71,5.119
		C43.15,5.466,43.783,6.311,43.783,7.266z"/>
</g>
</svg>