 <svg  version="1.0" xmlns="http://www.w3.org/2000/svg"  width="300.000000pt" height="300.000000pt" viewBox="0 0 300.000000 300.000000"  preserveAspectRatio="xMidYMid meet">  <g transform="translate(0.000000,300.000000) scale(0.100000,-0.100000)" fill="#ffffff" stroke="none"> <path d="M935 2175 c-402 -199 -530 -267 -530 -280 0 -13 132 -86 530 -291 292 -150 537 -274 546 -274 8 0 212 99 453 221 240 121 443 218 451 215 12 -4 15 -34 15 -161 l0 -155 -26 -10 -26 -10 7 -193 c4 -105 11 -196 15 -200 4 -4 40 -7 81 -5 l74 3 3 198 c2 197 2 199 -19 204 -22 6 -22 7 -15 202 l6 196 30 26 c17 14 30 31 30 37 0 14 -1052 542 -1077 541 -10 0 -256 -119 -548 -264z"/> <path d="M2113 1580 c-46 -21 -83 -44 -83 -49 0 -15 12 -14 77 5 30 9 67 14 81 11 26 -5 82 24 82 42 0 9 -45 31 -63 31 -7 0 -49 -18 -94 -40z"/> <path d="M810 1506 l-115 -53 -3 -117 c-3 -127 3 -141 54 -118 22 11 24 17 24 82 0 38 2 70 4 70 2 0 163 -77 357 -170 195 -94 360 -169 369 -168 16 3 748 375 766 390 19 14 23 58 7 74 -8 8 -26 14 -41 14 -15 0 -36 3 -47 6 -14 3 -119 -54 -349 -191 -180 -107 -334 -195 -342 -195 -22 0 -582 300 -588 315 -6 16 9 29 49 42 35 11 45 41 19 60 -27 20 -39 17 -164 -41z"/> <path d="M1870 1162 c-259 -137 -335 -181 -335 -196 0 -50 24 -41 364 133 184 94 339 175 344 180 15 15 -1 61 -21 61 -9 0 -168 -80 -352 -178z"/> <path d="M827 1263 c-26 -26 2 -44 262 -167 148 -71 274 -125 280 -121 6 3 11 14 11 24 0 14 -63 48 -268 145 -147 69 -270 126 -273 126 -3 0 -9 -3 -12 -7z"/> <path d="M1900 1064 c-393 -208 -382 -201 -378 -227 2 -12 10 -23 19 -25 9 -2 168 74 353 169 l337 172 -3 31 c-2 18 -9 32 -18 33 -8 2 -148 -67 -310 -153z"/> <path d="M830 1119 c-6 -11 -10 -27 -8 -36 3 -15 455 -222 486 -223 8 0 12 8 10 18 -2 11 -85 61 -232 140 -127 67 -233 122 -238 122 -4 0 -12 -9 -18 -21z"/> <path d="M1849 905 l-386 -193 -363 159 c-200 87 -371 159 -379 159 -27 0 -83 -40 -79 -56 2 -10 160 -87 435 -211 l432 -195 376 212 c207 117 385 220 395 229 29 24 14 85 -20 88 -16 2 -172 -71 -411 -192z"/> </g> </svg> 